<?xml version="1.0" encoding="UTF-8"?>
<svg version="1.1" xmlns="http://www.w3.org/2000/svg" width="512" height="512">
<path d="M0 0 C1.39764445 -0.00571764 2.79528425 -0.01268723 4.19291687 -0.02079773 C7.95095668 -0.03858162 11.70876118 -0.03759008 15.46683025 -0.03185534 C18.61560599 -0.02874475 21.76433772 -0.03487592 24.91310716 -0.04089409 C32.34201176 -0.05488642 39.7708012 -0.05341976 47.19970703 -0.04199219 C54.84571137 -0.03049015 62.49136579 -0.04463348 70.13732409 -0.07138866 C76.72534732 -0.09357253 83.31326088 -0.10017777 89.90131879 -0.09431225 C93.82617168 -0.09095102 97.75079983 -0.09330312 101.67562103 -0.11056328 C105.36290956 -0.12607573 109.04967965 -0.12203 112.73694801 -0.10325813 C114.7248631 -0.09784181 116.71280174 -0.11204966 118.70066833 -0.12695312 C126.75178299 -0.0608013 132.38792168 0.73677703 138.66113281 6.15014648 C139.33015625 6.98739258 139.33015625 6.98739258 140.01269531 7.84155273 C140.70492187 8.67493164 140.70492187 8.67493164 141.41113281 9.52514648 C144.13512778 13.69789036 144.88846359 17.34742467 144.89839172 22.29093933 C144.90547653 23.46975677 144.91256134 24.64857422 144.91986084 25.8631134 C144.91738342 27.14788071 144.91490601 28.43264801 144.91235352 29.75634766 C144.91670327 31.1300077 144.92188729 32.50366531 144.92784119 33.87731934 C144.94121894 37.60280989 144.94181088 41.3281989 144.93927789 45.05370879 C144.93820665 48.16962697 144.94309582 51.28552474 144.94788331 54.40143853 C144.95897576 61.7588522 144.95941836 69.11621483 144.95336914 76.47363281 C144.94733836 84.04611517 144.95961809 91.6184113 144.98093921 99.19086188 C144.99860115 105.70487751 145.00454907 112.21883412 145.00130147 118.73287278 C144.99949466 122.61761779 145.00206357 126.50223016 145.01601601 130.38695335 C145.02866354 134.04534601 145.02658549 137.70345066 145.01360512 141.36183929 C145.01014076 143.33035037 145.02136813 145.29887051 145.03317261 147.26734924 C144.95354958 160.80875133 141.23618179 171.56766212 132.01269531 181.65405273 C120.42166578 192.60236744 106.3709868 193.7063445 91.27075195 193.69458008 C89.72901588 193.70057351 88.1872828 193.70738092 86.64555359 193.7149353 C82.48024244 193.73251582 78.3150136 193.7372872 74.14966893 193.73856688 C71.54258012 193.73999312 68.93551193 193.74427156 66.32842827 193.74956131 C57.21999671 193.7680326 48.11162349 193.77623523 39.00317383 193.7746582 C30.5330755 193.77345637 22.06323179 193.79457438 13.59319788 193.82614553 C6.30203787 193.85234741 -0.98903914 193.86302392 -8.28024584 193.86174738 C-12.62663376 193.86123907 -16.97279495 193.86685045 -21.31913567 193.88810349 C-25.40771234 193.90755307 -29.49584743 193.90756488 -33.58444023 193.89307022 C-35.0783198 193.89098959 -36.57222753 193.89563827 -38.06605911 193.90779114 C-47.03741054 193.97600736 -56.26752587 194.0198589 -63.29395962 187.65399742 C-67.54073575 183.08472249 -69.60831344 178.5443153 -69.6230011 172.25193787 C-69.63362831 170.72785057 -69.63362831 170.72785057 -69.64447021 169.17297363 C-69.6419928 168.06901245 -69.63951538 166.96505127 -69.63696289 165.82763672 C-69.64207382 164.65624649 -69.64718475 163.48485626 -69.65245056 162.27796936 C-69.66635936 158.40197651 -69.66538805 154.52616134 -69.66308594 150.65014648 C-69.66539608 148.63330681 -69.66890013 146.61647151 -69.67249268 144.59963375 C-69.68358298 138.25374168 -69.68402975 131.90790879 -69.67797852 125.56201172 C-69.67195562 119.04156222 -69.6842077 112.52132943 -69.70554858 106.0009169 C-69.72324675 100.38452524 -69.72915259 94.768202 -69.72591084 89.15178353 C-69.72410885 85.80572535 -69.7279616 82.45994358 -69.74062538 79.11388969 C-69.75304631 75.37117039 -69.74616251 71.62894269 -69.73461914 67.88623047 C-69.74226288 66.7964389 -69.74990662 65.70664734 -69.75778198 64.58383179 C-69.68740215 54.19090817 -67.51175208 44.53126424 -62.73730469 35.27905273 C-62.39320557 34.60310059 -62.04910645 33.92714844 -61.69458008 33.23071289 C-58.44356372 27.10865961 -54.37331121 22.19398544 -49.36230469 17.40405273 C-48.84667969 16.85749023 -48.33105469 16.31092773 -47.79980469 15.74780273 C-43.97860431 12.0062107 -39.38701863 9.64877029 -34.67480469 7.21655273 C-34.03986084 6.88316895 -33.40491699 6.54978516 -32.75073242 6.20629883 C-22.21772024 0.99940862 -11.60982876 -0.04078474 0 0 Z " fill="#CCCCCC" transform="translate(346.3623046875,276.595947265625)"/>
<path d="M0 0 C1.53834403 -0.00407026 3.07668513 -0.00941468 4.61502075 -0.01593018 C8.77645052 -0.02956021 12.93765614 -0.02432181 17.09908962 -0.01479292 C21.46834836 -0.00716842 25.83758861 -0.01425016 30.20684814 -0.01895142 C37.54711327 -0.02440318 44.88728772 -0.01723501 52.22753906 -0.00292969 C60.68902399 0.01337138 69.15029174 0.00812452 77.61177135 -0.0084089 C84.89700438 -0.02206945 92.18217242 -0.02392047 99.46741414 -0.0160929 C103.8093542 -0.01143826 108.15119257 -0.01072971 112.49312592 -0.02070236 C116.58083508 -0.02943563 120.66826751 -0.02323539 124.75594711 -0.00601959 C126.24736194 -0.00208737 127.73880047 -0.00313204 129.23020554 -0.00980759 C144.63378011 -0.07234082 157.23378176 2.37213368 168.96582031 12.88818359 C176.5280391 20.83466146 180.88004926 31.39149669 180.92549133 42.28852844 C180.93622429 44.06109009 180.93622429 44.06109009 180.94717407 45.86946106 C180.94986298 47.15737045 180.95255188 48.44527985 180.95532227 49.7722168 C180.9615922 51.14912078 180.96823947 52.52602309 180.97523499 53.90292358 C180.99621074 58.4149255 181.00662973 62.9269275 181.01660156 67.43896484 C181.02065123 68.9955516 181.02476821 70.55213819 181.02895164 72.10872459 C181.04798727 79.42150778 181.06222299 86.73428097 181.07056361 94.04708415 C181.08033712 102.47573795 181.10666627 110.90412923 181.14706451 119.33269054 C181.17725751 125.85685612 181.19203541 132.38094656 181.19534463 138.90518063 C181.197691 142.79775394 181.2065978 146.69004624 181.2318058 150.58254433 C181.25514839 154.2458946 181.25929529 157.90878004 181.24904442 161.57218552 C181.24831597 163.54827109 181.26736231 165.52433339 181.28710938 167.50032043 C181.24021056 175.53875716 180.43711509 181.14823796 175.03222656 187.41162109 C174.4740625 187.85763672 173.91589844 188.30365234 173.34082031 188.76318359 C172.78523437 189.22466797 172.22964844 189.68615234 171.65722656 190.16162109 C167.4709165 192.89447215 163.80823654 193.63947883 158.84915161 193.65560913 C157.66073166 193.6641391 156.47231171 193.67266907 155.24787903 193.68145752 C153.95226547 193.68055115 152.65665192 193.67964478 151.32177734 193.67871094 C149.93652485 193.68469897 148.55127569 193.69150515 147.16603088 193.69906616 C143.40715733 193.71671806 139.64837489 193.72142155 135.8894639 193.72269773 C133.53496136 193.7241218 131.18048178 193.72839652 128.82598495 193.73369217 C120.59361052 193.7521987 112.36130079 193.76036312 104.12890625 193.75878906 C96.48717683 193.75759158 88.84573165 193.77861458 81.20407403 193.81027639 C74.6220389 193.83656358 68.04009577 193.84715099 61.45800865 193.84587824 C57.53672478 193.8453717 53.61569285 193.85088085 49.69446182 193.87223434 C45.99577696 193.89182441 42.29757866 193.89160223 38.59887505 193.87720108 C36.62057466 193.8741643 34.64227314 193.89064824 32.66404724 193.90808105 C14.05583842 193.77977142 -2.27288144 187.34688894 -15.56152344 174.21240234 C-28.29903099 160.68932164 -33.70193973 144.32264374 -33.62573242 125.95361328 C-33.63259567 124.7747757 -33.63945892 123.59593811 -33.64653015 122.38137817 C-33.66468154 118.52414567 -33.66097897 114.6673242 -33.65527344 110.81005859 C-33.65775472 108.79418918 -33.66210283 106.77832957 -33.66662651 104.76246381 C-33.68060438 98.44104449 -33.67916403 92.11976056 -33.66772461 85.79833984 C-33.65621984 79.29747537 -33.67037356 72.79702232 -33.69712108 66.29621196 C-33.71931953 60.68906799 -33.72590707 55.08205282 -33.72004467 49.47486806 C-33.71668732 46.13680121 -33.72073711 42.79920924 -33.7362957 39.46114349 C-33.7511964 35.74217637 -33.7405357 32.02411483 -33.72338867 28.30517578 C-33.73305664 27.21200043 -33.74272461 26.11882507 -33.75268555 24.99252319 C-33.6746954 16.90191409 -32.18849255 11.42242402 -26.47167969 5.57568359 C-17.96416338 -0.1505293 -9.89442828 -0.04402486 0 0 Z " fill="#CCCCCC" transform="translate(310.2216796875,41.61181640625)"/>
<path d="M0 0 C1.78262993 -0.01279495 1.78262993 -0.01279495 3.60127258 -0.02584839 C5.54469292 -0.02448883 5.54469292 -0.02448883 7.52737427 -0.02310181 C8.91262676 -0.02908984 10.29787593 -0.03589602 11.68312073 -0.04345703 C15.44199428 -0.06110893 19.20077672 -0.06581242 22.95968771 -0.0670886 C25.31419025 -0.06851267 27.66866983 -0.07278739 30.02316666 -0.07808304 C38.25554109 -0.09658957 46.48785082 -0.10475399 54.72024536 -0.10317993 C62.36197478 -0.10198245 70.00341996 -0.12300544 77.64507759 -0.15466726 C84.22711271 -0.18095445 90.80905584 -0.19154186 97.39114296 -0.19026911 C101.31242684 -0.18976257 105.23345876 -0.19527172 109.15468979 -0.21662521 C112.85337465 -0.23621528 116.55157295 -0.2359931 120.25027657 -0.22159195 C122.22857695 -0.21855517 124.20687847 -0.23503911 126.18510437 -0.25247192 C144.79331319 -0.12416229 161.12203305 6.30872019 174.41067505 19.44320679 C187.1481826 32.96628749 192.55109134 49.33296539 192.47488403 67.70199585 C192.48174728 68.88083344 192.48861053 70.05967102 192.49568176 71.27423096 C192.51383315 75.13146346 192.51013058 78.98828493 192.50442505 82.84555054 C192.50690633 84.86141995 192.51125444 86.87727956 192.51577812 88.89314532 C192.52975599 95.21456464 192.52831565 101.53584857 192.51687622 107.85726929 C192.50537146 114.35813376 192.51952517 120.85858681 192.5462727 127.35939717 C192.56847114 132.96654114 192.57505868 138.57355631 192.56919628 144.18074107 C192.56583893 147.51880792 192.56988872 150.8563999 192.58544731 154.19446564 C192.60034801 157.91343276 192.58968731 161.6314943 192.57254028 165.35043335 C192.58704224 166.99019638 192.58704224 166.99019638 192.60183716 168.66308594 C192.52384701 176.75369504 191.03764416 182.23318511 185.3208313 188.07992554 C176.813315 193.80613843 168.74357989 193.69963399 158.84915161 193.65560913 C157.31080758 193.65967939 155.77246648 193.66502382 154.23413086 193.67153931 C150.07270109 193.68516935 145.91149548 193.67993094 141.75006199 193.67040205 C137.38080325 193.66277755 133.011563 193.66985929 128.64230347 193.67456055 C121.30203835 193.68001231 113.96186389 193.67284414 106.62161255 193.65853882 C98.16012762 193.64223775 89.69885987 193.64748461 81.23738027 193.66401803 C73.95214723 193.67767858 66.66697919 193.6795296 59.38173747 193.67170203 C55.03979742 193.66704739 50.69795904 193.66633884 46.3560257 193.67631149 C42.26831653 193.68504476 38.1808841 193.67884453 34.0932045 193.66162872 C32.60178967 193.6576965 31.11035114 193.65874117 29.61894608 193.66541672 C14.2153715 193.72794995 1.61536985 191.28347545 -10.1166687 180.76742554 C-17.67888749 172.82094767 -22.03089765 162.26411244 -22.07633972 151.36708069 C-22.08349503 150.18537292 -22.09065033 149.00366516 -22.09802246 147.78614807 C-22.10071136 146.49823868 -22.10340027 145.21032928 -22.10617065 143.88339233 C-22.11244059 142.50648835 -22.11908786 141.12958604 -22.12608337 139.75268555 C-22.14705913 135.24068363 -22.15747812 130.72868163 -22.16744995 126.21664429 C-22.17149961 124.66005753 -22.1756166 123.10347094 -22.17980003 121.54688454 C-22.19883566 114.23410135 -22.21307138 106.92132816 -22.221412 99.60852498 C-22.23118551 91.17987118 -22.25751466 82.7514799 -22.2979129 74.32291859 C-22.3281059 67.79875301 -22.34288379 61.27466257 -22.34619302 54.7504285 C-22.34853939 50.85785519 -22.35744618 46.96556289 -22.38265419 43.0730648 C-22.40599678 39.40971453 -22.41014368 35.74682909 -22.39989281 32.08342361 C-22.39916436 30.10733804 -22.4182107 28.13127574 -22.43795776 26.1552887 C-22.39105895 18.11685197 -21.58796348 12.50737117 -16.18307495 6.24398804 C-15.62491089 5.79797241 -15.06674683 5.35195679 -14.4916687 4.89242554 C-13.93608276 4.43094116 -13.38049683 3.96945679 -12.80807495 3.49398804 C-8.62176489 0.76113698 -4.95908493 0.0161303 0 0 Z " fill="#CCCCCC" transform="translate(42.929168701171875,276.7325744628906)"/>
<path d="M0 0 C1.44336287 -0.00599629 2.88672255 -0.01280433 4.33007812 -0.02035522 C8.22261267 -0.0379046 12.1150591 -0.04270572 16.00762939 -0.0439868 C18.44503682 -0.04541457 20.88242228 -0.04969582 23.31982422 -0.05498123 C31.83823047 -0.07344064 40.35657441 -0.08165646 48.875 -0.08007812 C56.79242632 -0.07887589 64.70958043 -0.10000467 72.62693787 -0.13156545 C79.44678519 -0.15777444 86.26654378 -0.16844358 93.08644104 -0.16716731 C97.15001024 -0.16665929 101.21333684 -0.1722539 105.27685547 -0.19352341 C109.09870307 -0.21298574 112.92007842 -0.21297636 116.74194336 -0.19849014 C118.13745825 -0.19641123 119.53300337 -0.20104783 120.9284668 -0.21321106 C129.670791 -0.28442738 138.54952387 -0.1295711 145.37280273 6.04058266 C149.60624705 10.60613234 151.68087871 15.1405785 151.70492554 21.42245483 C151.71772049 22.94003891 151.71772049 22.94003891 151.73077393 24.48828125 C151.72941437 26.13715332 151.72941437 26.13715332 151.72802734 27.81933594 C151.73474457 28.98590729 151.74146179 30.15247864 151.74838257 31.35440063 C151.76739662 35.2159653 151.77128944 39.07735625 151.7734375 42.93896484 C151.77628597 44.27499085 151.77947812 45.61101618 151.78300858 46.94704056 C151.80151168 53.95396897 151.80968017 60.96082141 151.80810547 67.96777344 C151.80690887 74.4643609 151.82791504 80.96061355 151.8595928 87.45711648 C151.88591551 93.0582703 151.8964659 98.65931602 151.89519465 104.26053107 C151.89468901 107.59503808 151.90203686 110.92901423 151.92155075 114.26350021 C152.04814064 138.14390232 149.84072487 157.84504563 132.26171875 175.63037109 C118.02823881 189.03700988 101.27987061 193.76204513 82.07519531 193.69458008 C80.67755086 193.70029772 79.27991106 193.7072673 77.88227844 193.71537781 C74.12423863 193.7331617 70.36643413 193.73217016 66.60836506 193.72643542 C63.45958932 193.72332483 60.31085759 193.729456 57.16208816 193.73547417 C49.73318355 193.7494665 42.30439411 193.74799984 34.87548828 193.73657227 C27.22948394 193.72507023 19.58382952 193.73921356 11.93787122 193.76596874 C5.34984799 193.78815261 -1.23806557 193.79475785 -7.82612348 193.78889233 C-11.75097637 193.7855311 -15.67560452 193.7878832 -19.60042572 193.80514336 C-23.28771424 193.82065581 -26.97448434 193.81661008 -30.6617527 193.79783821 C-32.64966779 193.79242189 -34.63760642 193.80662973 -36.62547302 193.8215332 C-44.67658768 193.75538137 -50.31272636 192.95780305 -56.5859375 187.54443359 C-57.03195313 186.98626953 -57.47796875 186.42810547 -57.9375 185.85302734 C-58.39898437 185.29744141 -58.86046875 184.74185547 -59.3359375 184.16943359 C-61.96538655 180.1415196 -62.8128308 176.57261511 -62.82319641 171.79673767 C-62.83028122 170.70495209 -62.83736603 169.6131665 -62.84466553 168.48829651 C-62.84218811 167.30017868 -62.83971069 166.11206085 -62.8371582 164.88793945 C-62.84226913 163.62876709 -62.84738007 162.36959473 -62.85264587 161.07226562 C-62.86601962 157.62348925 -62.86661579 154.17482259 -62.86408257 150.72602534 C-62.8630106 147.83894525 -62.86790262 144.95188714 -62.872688 142.06481177 C-62.88378006 135.24428154 -62.88422393 128.42380637 -62.87817383 121.60327148 C-62.87214947 114.59204376 -62.88440641 107.58101751 -62.9057439 100.56982416 C-62.92343322 94.53305477 -62.92934931 88.49634905 -62.92610615 82.45955473 C-62.92430294 78.86202335 -62.92683125 75.2646353 -62.94082069 71.66712761 C-62.95587808 67.64424745 -62.94636533 63.62176879 -62.93481445 59.59887695 C-62.94245819 58.42492874 -62.95010193 57.25098053 -62.95797729 56.04145813 C-62.85702299 40.04371618 -58.01914231 27.22844134 -46.98046875 15.57958984 C-33.34370662 2.66982796 -18.18316606 -0.01520038 0 0 Z " fill="#CCCCCC" transform="translate(83.5625,41.70947265625)"/>
<path d="M0 0 C0.94925858 -0.00274933 1.89851715 -0.00549866 2.87654114 -0.0083313 C3.90584747 -0.00114075 4.93515381 0.0060498 5.99565125 0.01345825 C7.6353463 0.01302017 7.6353463 0.01302017 9.3081665 0.01257324 C12.91721058 0.0139653 16.52604758 0.02952096 20.13505554 0.04519653 C22.6389759 0.0489271 25.14289773 0.05177386 27.64682007 0.05377197 C33.56115355 0.06062504 39.47542072 0.07638409 45.38972014 0.09647095 C53.96817482 0.12497194 62.54665483 0.13542762 71.12514496 0.14808655 C83.13241614 0.16747522 95.13949358 0.20580034 107.14677429 0.24050903 C107.14677429 35.55050903 107.14677429 70.86050903 107.14677429 107.24050903 C64.90677429 107.24050903 22.66677429 107.24050903 -20.85322571 107.24050903 C-20.93572571 92.39050903 -21.01822571 77.54050903 -21.10322571 62.24050903 C-21.13964172 57.56250122 -21.17605774 52.88449341 -21.21357727 48.06472778 C-21.23164368 42.32449341 -21.23164368 42.32449341 -21.23500061 39.63186646 C-21.24111763 37.76301254 -21.25513342 35.89417379 -21.27552795 34.02542114 C-21.30496975 31.18408043 -21.30884446 28.34369904 -21.30732727 25.50222778 C-21.32891592 24.26662361 -21.32891592 24.26662361 -21.3509407 23.00605774 C-21.30410254 16.4172108 -19.43920819 11.23724041 -15.10713196 6.21707153 C-14.5489679 5.77105591 -13.99080383 5.32504028 -13.41572571 4.86550903 C-12.86013977 4.40402466 -12.30455383 3.94254028 -11.73213196 3.46707153 C-7.94502345 0.99482191 -4.50170885 -0.01010485 0 0 Z " fill="#FEFEFE" transform="translate(340.8532257080078,319.7594909667969)"/>
<path d="M0 0 C27.34083836 -0.16043524 27.34083836 -0.16043524 39.01757812 -0.1953125 C46.97741561 -0.2192006 54.93702557 -0.24742537 62.89672852 -0.30175781 C69.3158069 -0.3452986 75.73468736 -0.36915486 82.15390205 -0.37950897 C84.5998604 -0.38688547 87.04580822 -0.40129001 89.49168205 -0.42292023 C92.92429681 -0.45206259 96.3560993 -0.45595133 99.78881836 -0.45410156 C101.2971801 -0.47567322 101.2971801 -0.47567322 102.83601379 -0.49768066 C110.00393405 -0.45603199 116.47397697 0.72432763 121.8839407 5.75017929 C127.37494767 11.71396179 128.29495527 17.0463986 128.22705078 24.92114258 C128.22729185 25.82375415 128.22753292 26.72636572 128.2277813 27.65632915 C128.22629217 30.56916453 128.21107775 33.48174185 128.1953125 36.39453125 C128.19237082 38.19640988 128.19033115 39.99829022 128.18920898 41.8001709 C128.1787361 48.47097338 128.1508136 55.14173924 128.125 61.8125 C128.08375 76.724375 128.0425 91.63625 128 107 C85.76 107 43.52 107 0 107 C0 71.69 0 36.38 0 0 Z " fill="#FEFEFE" transform="translate(64,320)"/>
<path d="M0 0 C42.24 0 84.48 0 128 0 C128 35.31 128 70.62 128 107 C100.3694869 107.16043524 100.3694869 107.16043524 88.578125 107.1953125 C80.53700079 107.21920988 72.49605763 107.24685861 64.45507812 107.30175781 C57.97116599 107.34526664 51.48744957 107.36914814 45.00340271 107.37950897 C42.53149841 107.38689119 40.05960464 107.40130692 37.58778381 107.42292023 C34.12143938 107.45202001 30.65590035 107.45595309 27.18945312 107.45410156 C26.17093262 107.46848267 25.15241211 107.48286377 24.10302734 107.49768066 C16.87926767 107.45601745 11.54758533 105.99969571 5.9765625 101.2890625 C5.53054688 100.73992187 5.08453125 100.19078125 4.625 99.625 C4.16351563 99.08101563 3.70203125 98.53703125 3.2265625 97.9765625 C-0.14324426 92.54623695 -0.28113593 87.23181947 -0.22705078 81.05712891 C-0.22729185 80.16430899 -0.22753292 79.27148907 -0.2277813 78.351614 C-0.22629472 75.47649362 -0.21109207 72.60163618 -0.1953125 69.7265625 C-0.19237003 67.94555791 -0.19033085 66.16455159 -0.18920898 64.38354492 C-0.17874526 57.79733682 -0.15082272 51.21116579 -0.125 44.625 C-0.08375 29.89875 -0.0425 15.1725 0 0 Z " fill="#FEFEFE" transform="translate(320,85)"/>
<path d="M0 0 C1.52279572 -0.00412399 1.52279572 -0.00412399 3.07635498 -0.0083313 C4.1840625 -0.00114075 5.29177002 0.0060498 6.43304443 0.01345825 C7.60405701 0.0131662 8.77506958 0.01287415 9.98156738 0.01257324 C13.85576768 0.01396761 17.72977613 0.02953416 21.60394287 0.04519653 C24.28865451 0.05003662 26.97336594 0.05187181 29.65808105 0.05377197 C36.00452229 0.05998638 42.35089456 0.07639664 48.69730544 0.09647095 C55.9233695 0.1188312 63.14943686 0.12982369 70.37552691 0.13986182 C85.23816119 0.16076291 100.10073498 0.19593811 114.96331787 0.24050903 C115.05618138 11.81954606 115.12716589 23.39849382 115.17056656 34.97782803 C115.19140145 40.35515476 115.21964424 45.73222587 115.26507568 51.10940552 C115.30867953 56.30304016 115.33248578 61.4964296 115.34282684 66.69023323 C115.35019214 68.66729655 115.36457474 70.64434712 115.3862381 72.62130547 C115.41546544 75.40018115 115.41926583 78.17805602 115.41741943 80.95706177 C115.43180054 81.76627075 115.44618164 82.57547974 115.46099854 83.40921021 C115.41377445 90.01915527 113.77795815 96.14685769 109.24243546 101.13197994 C102.63635648 107.30638396 95.75035615 107.52881096 87.0927124 107.46755981 C85.46742867 107.46799789 85.46742867 107.46799789 83.80931091 107.46844482 C80.23816846 107.46705469 76.66723625 107.45150812 73.09613037 107.43582153 C70.61605951 107.43209029 68.13598717 107.42924384 65.65591431 107.42724609 C59.13588372 107.41961847 52.61594257 107.39997734 46.09594727 107.37783813 C39.43977546 107.35627718 32.7835776 107.34824038 26.12738037 107.33816528 C13.07265477 107.31673073 0.01799108 107.28299092 -13.03668213 107.24050903 C-13.1293331 94.2885434 -13.20042248 81.33665651 -13.24393082 68.38442707 C-13.2648119 62.37027093 -13.29313962 56.35634139 -13.33843994 50.34231567 C-13.38187826 44.53921974 -13.40581531 38.73634188 -13.4161911 32.93309593 C-13.42358602 30.71827956 -13.43802644 28.50347522 -13.45960236 26.2887516 C-13.4886089 23.18817917 -13.49263919 20.08850961 -13.49078369 16.98782349 C-13.50516479 16.07072601 -13.5195459 15.15362854 -13.53436279 14.20874023 C-13.50786416 10.1207441 -13.38754179 7.82926796 -11.25830078 4.25630188 C-7.61089703 0.94681833 -4.909033 -0.01026994 0 0 Z " fill="#FEFEFE" transform="translate(77.03668212890625,84.75949096679688)"/>
</svg>
